{
	"asset":{
		"generator":"Khronos glTF Blender I/O v5.0.21",
		"version":"2.0"
	},
	"scene":0,
	"scenes":[
		{
			"name":"Scene",
			"nodes":[
				0,
				1,
				2
			]
		}
	],
	"nodes":[
		{
			"mesh":0,
			"name":"ldeft_door"
		},
		{
			"mesh":1,
			"name":"frinme_door"
		},
		{
			"mesh":2,
			"name":"righet_door"
		}
	],
	"materials":[
		{
			"doubleSided":true,
			"name":"Old-Door-PBR",
			"normalTexture":{
				"index":0
			},
			"pbrMetallicRoughness":{
				"baseColorTexture":{
					"index":1
				},
				"metallicFactor":0,
				"metallicRoughnessTexture":{
					"index":2
				}
			}
		}
	],
	"meshes":[
		{
			"name":"Old-Door_Old-Door-PBR_0",
			"primitives":[
				{
					"attributes":{
						"POSITION":0,
						"NORMAL":1,
						"TEXCOORD_0":2,
						"TEXCOORD_1":3,
						"TEXCOORD_2":4
					},
					"indices":5,
					"material":0
				}
			]
		},
		{
			"name":"Old-Door_Old-Door-PBR_0.001",
			"primitives":[
				{
					"attributes":{
						"POSITION":6,
						"NORMAL":7,
						"TEXCOORD_0":8,
						"TEXCOORD_1":9,
						"TEXCOORD_2":10
					},
					"indices":11,
					"material":0
				}
			]
		},
		{
			"name":"Old-Door_Old-Door-PBR_0.002",
			"primitives":[
				{
					"attributes":{
						"POSITION":12,
						"NORMAL":13,
						"TEXCOORD_0":14,
						"TEXCOORD_1":15,
						"TEXCOORD_2":16
					},
					"indices":17,
					"material":0
				}
			]
		}
	],
	"textures":[
		{
			"sampler":0,
			"source":0
		},
		{
			"sampler":0,
			"source":1
		},
		{
			"sampler":0,
			"source":2
		}
	],
	"images":[
		{
			"mimeType":"image/png",
			"name":"Old-Door-PBR_normal",
			"uri":"Old-Door-PBR_normal.png"
		},
		{
			"mimeType":"image/png",
			"name":"Old-Door-PBR_baseColor",
			"uri":"Old-Door-PBR_baseColor.png"
		},
		{
			"mimeType":"image/png",
			"name":"Old-Door-PBR_metallicRoughness",
			"uri":"Old-Door-PBR_metallicRoughness.png"
		}
	],
	"accessors":[
		{
			"bufferView":0,
			"componentType":5126,
			"count":346,
			"max":[
				-0.0006561109912581742,
				2.9000766277313232,
				0.06670855730772018
			],
			"min":[
				-0.772656261920929,
				0.06874195486307144,
				-0.06670866161584854
			],
			"type":"VEC3"
		},
		{
			"bufferView":1,
			"componentType":5126,
			"count":346,
			"type":"VEC3"
		},
		{
			"bufferView":2,
			"componentType":5126,
			"count":346,
			"type":"VEC2"
		},
		{
			"bufferView":3,
			"componentType":5126,
			"count":346,
			"type":"VEC2"
		},
		{
			"bufferView":4,
			"componentType":5126,
			"count":346,
			"type":"VEC2"
		},
		{
			"bufferView":5,
			"componentType":5123,
			"count":720,
			"type":"SCALAR"
		},
		{
			"bufferView":6,
			"componentType":5126,
			"count":64,
			"max":[
				0.9117563962936401,
				3.025144577026367,
				0.09678570181131363
			],
			"min":[
				-0.9117563962936401,
				-0.04337598383426666,
				-0.09509692341089249
			],
			"type":"VEC3"
		},
		{
			"bufferView":7,
			"componentType":5126,
			"count":64,
			"type":"VEC3"
		},
		{
			"bufferView":8,
			"componentType":5126,
			"count":64,
			"type":"VEC2"
		},
		{
			"bufferView":9,
			"componentType":5126,
			"count":64,
			"type":"VEC2"
		},
		{
			"bufferView":10,
			"componentType":5126,
			"count":64,
			"type":"VEC2"
		},
		{
			"bufferView":11,
			"componentType":5123,
			"count":168,
			"type":"SCALAR"
		},
		{
			"bufferView":12,
			"componentType":5126,
			"count":346,
			"max":[
				0.772656261920929,
				2.9000766277313232,
				0.06670869886875153
			],
			"min":[
				0.0006560315378010273,
				0.06874202191829681,
				-0.06670878827571869
			],
			"type":"VEC3"
		},
		{
			"bufferView":13,
			"componentType":5126,
			"count":346,
			"type":"VEC3"
		},
		{
			"bufferView":14,
			"componentType":5126,
			"count":346,
			"type":"VEC2"
		},
		{
			"bufferView":15,
			"componentType":5126,
			"count":346,
			"type":"VEC2"
		},
		{
			"bufferView":16,
			"componentType":5126,
			"count":346,
			"type":"VEC2"
		},
		{
			"bufferView":17,
			"componentType":5123,
			"count":720,
			"type":"SCALAR"
		}
	],
	"bufferViews":[
		{
			"buffer":0,
			"byteLength":4152,
			"byteOffset":0,
			"target":34962
		},
		{
			"buffer":0,
			"byteLength":4152,
			"byteOffset":4152,
			"target":34962
		},
		{
			"buffer":0,
			"byteLength":2768,
			"byteOffset":8304,
			"target":34962
		},
		{
			"buffer":0,
			"byteLength":2768,
			"byteOffset":11072,
			"target":34962
		},
		{
			"buffer":0,
			"byteLength":2768,
			"byteOffset":13840,
			"target":34962
		},
		{
			"buffer":0,
			"byteLength":1440,
			"byteOffset":16608,
			"target":34963
		},
		{
			"buffer":0,
			"byteLength":768,
			"byteOffset":18048,
			"target":34962
		},
		{
			"buffer":0,
			"byteLength":768,
			"byteOffset":18816,
			"target":34962
		},
		{
			"buffer":0,
			"byteLength":512,
			"byteOffset":19584,
			"target":34962
		},
		{
			"buffer":0,
			"byteLength":512,
			"byteOffset":20096,
			"target":34962
		},
		{
			"buffer":0,
			"byteLength":512,
			"byteOffset":20608,
			"target":34962
		},
		{
			"buffer":0,
			"byteLength":336,
			"byteOffset":21120,
			"target":34963
		},
		{
			"buffer":0,
			"byteLength":4152,
			"byteOffset":21456,
			"target":34962
		},
		{
			"buffer":0,
			"byteLength":4152,
			"byteOffset":25608,
			"target":34962
		},
		{
			"buffer":0,
			"byteLength":2768,
			"byteOffset":29760,
			"target":34962
		},
		{
			"buffer":0,
			"byteLength":2768,
			"byteOffset":32528,
			"target":34962
		},
		{
			"buffer":0,
			"byteLength":2768,
			"byteOffset":35296,
			"target":34962
		},
		{
			"buffer":0,
			"byteLength":1440,
			"byteOffset":38064,
			"target":34963
		}
	],
	"samplers":[
		{
			"magFilter":9729,
			"minFilter":9987
		}
	],
	"buffers":[
		{
			"byteLength":39504,
			"uri":"dubel_door.bin"
		}
	]
}
