{
	"asset":{
		"generator":"Khronos glTF Blender I/O v5.0.21",
		"version":"2.0"
	},
	"scene":0,
	"scenes":[
		{
			"name":"Scene",
			"nodes":[
				0,
				1
			]
		}
	],
	"nodes":[
		{
			"mesh":0,
			"name":"DoorFrame"
		},
		{
			"mesh":1,
			"name":"Door"
		}
	],
	"materials":[
		{
			"doubleSided":true,
			"name":"MAT_Door",
			"normalTexture":{
				"index":0
			},
			"pbrMetallicRoughness":{
				"baseColorTexture":{
					"index":1
				},
				"metallicFactor":0,
				"metallicRoughnessTexture":{
					"index":2
				}
			}
		}
	],
	"meshes":[
		{
			"name":"DoorFrame",
			"primitives":[
				{
					"attributes":{
						"POSITION":0,
						"NORMAL":1,
						"TEXCOORD_0":2
					},
					"indices":3,
					"material":0
				}
			]
		},
		{
			"name":"Door",
			"primitives":[
				{
					"attributes":{
						"POSITION":4,
						"NORMAL":5,
						"TEXCOORD_0":6
					},
					"indices":7,
					"material":0
				}
			]
		}
	],
	"textures":[
		{
			"sampler":0,
			"source":0
		},
		{
			"sampler":0,
			"source":1
		},
		{
			"sampler":0,
			"source":2
		}
	],
	"images":[
		{
			"mimeType":"image/png",
			"name":"Atlas_normal",
			"uri":"Atlas_normal.png"
		},
		{
			"mimeType":"image/png",
			"name":"Atlas_color",
			"uri":"Atlas_color.png"
		},
		{
			"mimeType":"image/png",
			"name":"Atlas_roughness",
			"uri":"Atlas_roughness.png"
		}
	],
	"accessors":[
		{
			"bufferView":0,
			"componentType":5126,
			"count":75,
			"max":[
				0.5,
				2.0999999046325684,
				0.026666665449738503
			],
			"min":[
				-0.5,
				0,
				-0.053333330899477005
			],
			"type":"VEC3"
		},
		{
			"bufferView":1,
			"componentType":5126,
			"count":75,
			"type":"VEC3"
		},
		{
			"bufferView":2,
			"componentType":5126,
			"count":75,
			"type":"VEC2"
		},
		{
			"bufferView":3,
			"componentType":5123,
			"count":111,
			"type":"SCALAR"
		},
		{
			"bufferView":4,
			"componentType":5126,
			"count":4695,
			"max":[
				0.4227209687232971,
				2.016913890838623,
				0.050509292632341385
			],
			"min":[
				-0.4132789671421051,
				0.02198272943496704,
				-0.05050734803080559
			],
			"type":"VEC3"
		},
		{
			"bufferView":5,
			"componentType":5126,
			"count":4695,
			"type":"VEC3"
		},
		{
			"bufferView":6,
			"componentType":5126,
			"count":4695,
			"type":"VEC2"
		},
		{
			"bufferView":7,
			"componentType":5123,
			"count":26802,
			"type":"SCALAR"
		}
	],
	"bufferViews":[
		{
			"buffer":0,
			"byteLength":900,
			"byteOffset":0,
			"target":34962
		},
		{
			"buffer":0,
			"byteLength":900,
			"byteOffset":900,
			"target":34962
		},
		{
			"buffer":0,
			"byteLength":600,
			"byteOffset":1800,
			"target":34962
		},
		{
			"buffer":0,
			"byteLength":222,
			"byteOffset":2400,
			"target":34963
		},
		{
			"buffer":0,
			"byteLength":56340,
			"byteOffset":2624,
			"target":34962
		},
		{
			"buffer":0,
			"byteLength":56340,
			"byteOffset":58964,
			"target":34962
		},
		{
			"buffer":0,
			"byteLength":37560,
			"byteOffset":115304,
			"target":34962
		},
		{
			"buffer":0,
			"byteLength":53604,
			"byteOffset":152864,
			"target":34963
		}
	],
	"samplers":[
		{
			"magFilter":9729,
			"minFilter":9987
		}
	],
	"buffers":[
		{
			"byteLength":206468,
			"uri":"singelo_door.bin"
		}
	]
}
